<svg xmlns="http://www.w3.org/2000/svg" xmlns:xlink="http://www.w3.org/1999/xlink" width="1920" zoomAndPan="magnify" viewBox="0 0 1440 809.999993" height="1080" preserveAspectRatio="xMidYMid meet" version="1.0"><defs><g/></defs><rect x="-144" width="1728" fill="#ffffff" y="-80.999999" height="971.999992" fill-opacity="1"/><g fill="#000000" fill-opacity="1"><g transform="translate(680.044364, 408.999991)"><g><path d="M 3.609375 -12.03125 C 3.523438 -12.132812 3.535156 -12.222656 3.640625 -12.296875 C 3.753906 -12.378906 3.84375 -12.363281 3.90625 -12.25 L 8.84375 -5.21875 L 8.84375 -12.140625 C 8.84375 -12.273438 8.910156 -12.34375 9.046875 -12.34375 C 9.179688 -12.34375 9.25 -12.273438 9.25 -12.140625 L 9.25 -4.59375 C 9.25 -4.5 9.195312 -4.4375 9.09375 -4.40625 C 9 -4.375 8.925781 -4.394531 8.875 -4.46875 Z M 1.75 0 C 1.75 0.125 1.679688 0.1875 1.546875 0.1875 C 1.421875 0.1875 1.359375 0.125 1.359375 0 L 1.359375 -12.140625 C 1.359375 -12.273438 1.421875 -12.34375 1.546875 -12.34375 C 1.679688 -12.34375 1.75 -12.273438 1.75 -12.140625 Z M 11.65625 0 C 11.65625 0.125 11.585938 0.1875 11.453125 0.1875 C 11.316406 0.1875 11.25 0.125 11.25 0 L 11.25 -12.140625 C 11.25 -12.273438 11.316406 -12.34375 11.453125 -12.34375 C 11.585938 -12.34375 11.65625 -12.273438 11.65625 -12.140625 Z M 9.4375 -0.125 C 9.5 -0.0078125 9.476562 0.0820312 9.375 0.15625 C 9.28125 0.226562 9.1875 0.21875 9.09375 0.125 L 4.203125 -6.9375 L 4.203125 0 C 4.203125 0.125 4.132812 0.1875 4 0.1875 C 3.863281 0.1875 3.796875 0.125 3.796875 0 L 3.796875 -7.5625 C 3.796875 -7.65625 3.835938 -7.71875 3.921875 -7.75 C 4.015625 -7.78125 4.097656 -7.757812 4.171875 -7.6875 Z M 9.4375 -0.125 "/></g></g></g><g fill="#000000" fill-opacity="1"><g transform="translate(694.65833, 408.999991)"><g><path d="M 1.75 0 C 1.75 0.125 1.6875 0.1875 1.5625 0.1875 C 1.425781 0.1875 1.359375 0.125 1.359375 0 L 1.359375 -12.15625 C 1.359375 -12.28125 1.425781 -12.34375 1.5625 -12.34375 C 1.6875 -12.34375 1.75 -12.28125 1.75 -12.15625 Z M 4.1875 0 C 4.1875 0.125 4.125 0.1875 4 0.1875 C 3.863281 0.1875 3.796875 0.125 3.796875 0 L 3.796875 -12.15625 C 3.796875 -12.28125 3.863281 -12.34375 4 -12.34375 C 4.125 -12.34375 4.1875 -12.28125 4.1875 -12.15625 Z M 4.1875 0 "/></g></g></g><g fill="#000000" fill-opacity="1"><g transform="translate(701.795756, 408.999991)"><g><path d="M 7.65625 -11.890625 C 7.78125 -11.835938 7.816406 -11.75 7.765625 -11.625 C 7.722656 -11.507812 7.640625 -11.476562 7.515625 -11.53125 C 6.910156 -11.738281 6.285156 -11.882812 5.640625 -11.96875 C 5.003906 -12.0625 4.394531 -12.035156 3.8125 -11.890625 C 3.226562 -11.742188 2.710938 -11.429688 2.265625 -10.953125 C 1.898438 -10.566406 1.640625 -10.09375 1.484375 -9.53125 C 1.335938 -8.96875 1.320312 -8.398438 1.4375 -7.828125 C 1.5625 -7.253906 1.867188 -6.75 2.359375 -6.3125 C 2.773438 -5.945312 3.203125 -5.671875 3.640625 -5.484375 C 4.078125 -5.296875 4.484375 -5.128906 4.859375 -4.984375 C 5.242188 -4.847656 5.554688 -4.679688 5.796875 -4.484375 C 6.046875 -4.285156 6.179688 -3.988281 6.203125 -3.59375 C 6.222656 -3.1875 6.082031 -2.851562 5.78125 -2.59375 C 5.488281 -2.332031 5.144531 -2.191406 4.75 -2.171875 C 4.207031 -2.140625 3.613281 -2.195312 2.96875 -2.34375 C 2.332031 -2.5 1.742188 -2.773438 1.203125 -3.171875 C 1.085938 -3.253906 1.070312 -3.347656 1.15625 -3.453125 C 1.238281 -3.554688 1.328125 -3.570312 1.421875 -3.5 C 1.703125 -3.320312 2.023438 -3.148438 2.390625 -2.984375 C 2.765625 -2.828125 3.15625 -2.707031 3.5625 -2.625 C 3.96875 -2.550781 4.34375 -2.53125 4.6875 -2.5625 C 5.039062 -2.601562 5.328125 -2.71875 5.546875 -2.90625 C 5.742188 -3.101562 5.832031 -3.332031 5.8125 -3.59375 C 5.789062 -3.851562 5.679688 -4.070312 5.484375 -4.25 C 5.328125 -4.382812 5.070312 -4.515625 4.71875 -4.640625 C 4.375 -4.773438 3.988281 -4.9375 3.5625 -5.125 C 3.132812 -5.3125 2.722656 -5.546875 2.328125 -5.828125 C 1.929688 -6.117188 1.601562 -6.476562 1.34375 -6.90625 C 1.09375 -7.34375 0.96875 -7.878906 0.96875 -8.515625 C 0.96875 -9.398438 1.175781 -10.148438 1.59375 -10.765625 C 2.019531 -11.390625 2.59375 -11.84375 3.3125 -12.125 C 4.039062 -12.40625 4.859375 -12.484375 5.765625 -12.359375 C 6.003906 -12.328125 6.28125 -12.273438 6.59375 -12.203125 C 6.90625 -12.128906 7.257812 -12.023438 7.65625 -11.890625 Z M 0.90625 -0.625 C 0.789062 -0.6875 0.765625 -0.769531 0.828125 -0.875 C 0.898438 -0.988281 0.992188 -1.019531 1.109375 -0.96875 C 1.597656 -0.71875 2.125 -0.515625 2.6875 -0.359375 C 3.25 -0.203125 3.8125 -0.113281 4.375 -0.09375 C 4.945312 -0.0820312 5.488281 -0.160156 6 -0.328125 C 6.507812 -0.492188 6.953125 -0.765625 7.328125 -1.140625 C 7.710938 -1.535156 7.984375 -2.007812 8.140625 -2.5625 C 8.304688 -3.113281 8.328125 -3.671875 8.203125 -4.234375 C 8.085938 -4.804688 7.785156 -5.316406 7.296875 -5.765625 C 6.867188 -6.160156 6.4375 -6.457031 6 -6.65625 C 5.5625 -6.851562 5.148438 -7.019531 4.765625 -7.15625 C 4.390625 -7.300781 4.078125 -7.472656 3.828125 -7.671875 C 3.578125 -7.867188 3.441406 -8.160156 3.421875 -8.546875 C 3.410156 -8.941406 3.535156 -9.269531 3.796875 -9.53125 C 4.066406 -9.789062 4.394531 -9.925781 4.78125 -9.9375 C 5.550781 -9.988281 6.40625 -9.820312 7.34375 -9.4375 C 7.46875 -9.382812 7.503906 -9.300781 7.453125 -9.1875 C 7.398438 -9.070312 7.3125 -9.035156 7.1875 -9.078125 C 6.894531 -9.203125 6.515625 -9.320312 6.046875 -9.4375 C 5.585938 -9.5625 5.160156 -9.597656 4.765625 -9.546875 C 4.515625 -9.515625 4.289062 -9.421875 4.09375 -9.265625 C 3.894531 -9.117188 3.800781 -8.898438 3.8125 -8.609375 C 3.8125 -8.316406 3.9375 -8.078125 4.1875 -7.890625 C 4.34375 -7.773438 4.59375 -7.648438 4.9375 -7.515625 C 5.28125 -7.378906 5.664062 -7.210938 6.09375 -7.015625 C 6.519531 -6.816406 6.925781 -6.566406 7.3125 -6.265625 C 7.707031 -5.972656 8.03125 -5.609375 8.28125 -5.171875 C 8.539062 -4.734375 8.671875 -4.210938 8.671875 -3.609375 C 8.671875 -2.835938 8.515625 -2.175781 8.203125 -1.625 C 7.890625 -1.082031 7.460938 -0.648438 6.921875 -0.328125 C 6.378906 -0.015625 5.753906 0.171875 5.046875 0.234375 C 4.347656 0.304688 3.613281 0.25 2.84375 0.0625 C 2.53125 0 2.210938 -0.0859375 1.890625 -0.203125 C 1.566406 -0.316406 1.238281 -0.457031 0.90625 -0.625 Z M 0.90625 -0.625 "/></g></g></g><g fill="#000000" fill-opacity="1"><g transform="translate(712.722423, 408.999991)"><g><path d="M 9.59375 -11.96875 C 9.707031 -11.9375 9.738281 -11.851562 9.6875 -11.71875 C 9.675781 -11.664062 9.640625 -11.628906 9.578125 -11.609375 C 9.523438 -11.597656 9.476562 -11.597656 9.4375 -11.609375 C 8.707031 -11.910156 7.9375 -12.0625 7.125 -12.0625 C 6.164062 -12.0625 5.328125 -11.90625 4.609375 -11.59375 C 3.890625 -11.289062 3.285156 -10.875 2.796875 -10.34375 C 2.304688 -9.8125 1.925781 -9.222656 1.65625 -8.578125 C 1.34375 -7.804688 1.1875 -6.992188 1.1875 -6.140625 C 1.1875 -5.296875 1.34375 -4.488281 1.65625 -3.71875 C 1.925781 -3.0625 2.304688 -2.46875 2.796875 -1.9375 C 3.285156 -1.414062 3.890625 -1 4.609375 -0.6875 C 5.328125 -0.382812 6.164062 -0.234375 7.125 -0.234375 C 7.519531 -0.234375 7.910156 -0.269531 8.296875 -0.34375 C 8.691406 -0.414062 9.070312 -0.535156 9.4375 -0.703125 C 9.476562 -0.722656 9.523438 -0.71875 9.578125 -0.6875 C 9.640625 -0.664062 9.675781 -0.632812 9.6875 -0.59375 C 9.75 -0.46875 9.71875 -0.378906 9.59375 -0.328125 C 8.820312 -0.00390625 8 0.15625 7.125 0.15625 C 6.113281 0.15625 5.222656 -0.00390625 4.453125 -0.328125 C 3.691406 -0.660156 3.046875 -1.109375 2.515625 -1.671875 C 1.992188 -2.242188 1.59375 -2.875 1.3125 -3.5625 C 0.976562 -4.382812 0.8125 -5.25 0.8125 -6.15625 C 0.8125 -7.0625 0.976562 -7.914062 1.3125 -8.71875 C 1.59375 -9.425781 1.992188 -10.0625 2.515625 -10.625 C 3.046875 -11.1875 3.691406 -11.632812 4.453125 -11.96875 C 5.222656 -12.300781 6.113281 -12.46875 7.125 -12.46875 C 7.96875 -12.46875 8.789062 -12.300781 9.59375 -11.96875 Z M 9.109375 -3.171875 C 9.222656 -3.234375 9.304688 -3.207031 9.359375 -3.09375 C 9.429688 -2.988281 9.410156 -2.90625 9.296875 -2.84375 C 8.929688 -2.632812 8.582031 -2.488281 8.25 -2.40625 C 7.914062 -2.332031 7.539062 -2.296875 7.125 -2.296875 C 6.226562 -2.296875 5.488281 -2.515625 4.90625 -2.953125 C 4.320312 -3.390625 3.90625 -3.929688 3.65625 -4.578125 C 3.457031 -5.078125 3.359375 -5.601562 3.359375 -6.15625 C 3.359375 -6.707031 3.457031 -7.226562 3.65625 -7.71875 C 3.90625 -8.363281 4.320312 -8.90625 4.90625 -9.34375 C 5.488281 -9.789062 6.226562 -10.015625 7.125 -10.015625 C 7.539062 -10.015625 7.914062 -9.972656 8.25 -9.890625 C 8.582031 -9.816406 8.929688 -9.675781 9.296875 -9.46875 C 9.398438 -9.394531 9.421875 -9.304688 9.359375 -9.203125 C 9.304688 -9.097656 9.222656 -9.070312 9.109375 -9.125 C 8.785156 -9.3125 8.46875 -9.441406 8.15625 -9.515625 C 7.851562 -9.585938 7.507812 -9.625 7.125 -9.625 C 6.3125 -9.625 5.644531 -9.425781 5.125 -9.03125 C 4.613281 -8.632812 4.242188 -8.148438 4.015625 -7.578125 C 3.828125 -7.128906 3.734375 -6.648438 3.734375 -6.140625 C 3.734375 -5.640625 3.828125 -5.160156 4.015625 -4.703125 C 4.242188 -4.128906 4.613281 -3.644531 5.125 -3.25 C 5.644531 -2.863281 6.3125 -2.671875 7.125 -2.671875 C 7.507812 -2.671875 7.851562 -2.707031 8.15625 -2.78125 C 8.46875 -2.863281 8.785156 -2.992188 9.109375 -3.171875 Z M 9.109375 -3.171875 "/></g></g></g><g fill="#5e17eb" fill-opacity="1"><g transform="translate(724.610768, 408.999991)"><g><path d="M 1.75 0 C 1.75 0.125 1.679688 0.1875 1.546875 0.1875 C 1.421875 0.1875 1.359375 0.125 1.359375 0 L 1.359375 -12.15625 C 1.359375 -12.28125 1.421875 -12.34375 1.546875 -12.34375 C 1.679688 -12.34375 1.75 -12.28125 1.75 -12.15625 Z M 3.78125 -12.15625 C 3.78125 -12.28125 3.847656 -12.34375 3.984375 -12.34375 C 4.117188 -12.34375 4.1875 -12.28125 4.1875 -12.15625 L 4.1875 -7.5 L 7.421875 -7.5 L 7.421875 -12.15625 C 7.421875 -12.28125 7.484375 -12.34375 7.609375 -12.34375 C 7.742188 -12.34375 7.8125 -12.28125 7.8125 -12.15625 L 7.8125 -7.296875 C 7.8125 -7.160156 7.742188 -7.09375 7.609375 -7.09375 L 3.984375 -7.09375 C 3.929688 -7.09375 3.882812 -7.113281 3.84375 -7.15625 C 3.800781 -7.195312 3.78125 -7.242188 3.78125 -7.296875 Z M 9.859375 -12.15625 C 9.859375 -12.28125 9.921875 -12.34375 10.046875 -12.34375 C 10.179688 -12.34375 10.25 -12.28125 10.25 -12.15625 L 10.25 0 C 10.25 0.125 10.179688 0.1875 10.046875 0.1875 C 9.921875 0.1875 9.859375 0.125 9.859375 0 Z M 7.8125 0 C 7.8125 0.125 7.742188 0.1875 7.609375 0.1875 C 7.484375 0.1875 7.421875 0.125 7.421875 0 L 7.421875 -4.671875 L 4.1875 -4.671875 L 4.1875 0 C 4.1875 0.125 4.117188 0.1875 3.984375 0.1875 C 3.847656 0.1875 3.78125 0.125 3.78125 0 L 3.78125 -4.859375 C 3.78125 -4.992188 3.847656 -5.0625 3.984375 -5.0625 L 7.609375 -5.0625 C 7.742188 -5.0625 7.8125 -4.992188 7.8125 -4.859375 Z M 7.8125 0 "/></g></g></g><g fill="#5e17eb" fill-opacity="1"><g transform="translate(737.814387, 408.999991)"><g><path d="M 0.65625 -0.125 C 0.625 0 0.539062 0.0390625 0.40625 0 C 0.363281 -0.0195312 0.328125 -0.0546875 0.296875 -0.109375 C 0.273438 -0.160156 0.28125 -0.207031 0.3125 -0.25 L 5.28125 -12.484375 C 5.320312 -12.566406 5.382812 -12.609375 5.46875 -12.609375 C 5.5625 -12.609375 5.625 -12.566406 5.65625 -12.484375 L 10.640625 -0.25 C 10.660156 -0.207031 10.660156 -0.160156 10.640625 -0.109375 C 10.628906 -0.0546875 10.597656 -0.0195312 10.546875 0 C 10.410156 0.0390625 10.320312 0 10.28125 -0.125 L 5.46875 -11.90625 Z M 4.578125 -3.546875 C 4.441406 -3.546875 4.375 -3.609375 4.375 -3.734375 C 4.375 -3.859375 4.441406 -3.921875 4.578125 -3.921875 L 6.09375 -3.921875 L 5.28125 -5.859375 C 5.238281 -5.984375 5.273438 -6.070312 5.390625 -6.125 C 5.515625 -6.175781 5.601562 -6.132812 5.65625 -6 L 6.546875 -3.828125 C 6.554688 -3.804688 6.5625 -3.773438 6.5625 -3.734375 C 6.5625 -3.609375 6.492188 -3.546875 6.359375 -3.546875 Z M 3.296875 -0.125 C 3.265625 0 3.1875 0.0390625 3.0625 0 C 3 -0.0195312 2.957031 -0.0546875 2.9375 -0.109375 C 2.914062 -0.160156 2.914062 -0.207031 2.9375 -0.25 L 3.40625 -1.359375 C 3.414062 -1.441406 3.476562 -1.484375 3.59375 -1.484375 L 7.359375 -1.484375 C 7.460938 -1.484375 7.523438 -1.441406 7.546875 -1.359375 L 8 -0.25 C 8.03125 -0.207031 8.03125 -0.160156 8 -0.109375 C 7.976562 -0.0546875 7.941406 -0.0195312 7.890625 0 C 7.773438 0.03125 7.691406 -0.0078125 7.640625 -0.125 L 7.21875 -1.109375 L 3.703125 -1.109375 Z M 3.296875 -0.125 "/></g></g></g><g fill="#5e17eb" fill-opacity="1"><g transform="translate(750.389302, 408.999991)"><g><path d="M 8.625 -0.203125 C 8.757812 -0.203125 8.828125 -0.132812 8.828125 0 C 8.828125 0.125 8.757812 0.1875 8.625 0.1875 L 1.546875 0.1875 C 1.421875 0.1875 1.359375 0.125 1.359375 0 L 1.359375 -12.15625 C 1.359375 -12.28125 1.421875 -12.34375 1.546875 -12.34375 C 1.679688 -12.34375 1.75 -12.28125 1.75 -12.15625 L 1.75 -0.203125 Z M 3.78125 -12.15625 C 3.78125 -12.28125 3.847656 -12.34375 3.984375 -12.34375 C 4.117188 -12.34375 4.1875 -12.28125 4.1875 -12.15625 L 4.1875 -2.640625 L 8.625 -2.640625 C 8.757812 -2.640625 8.828125 -2.570312 8.828125 -2.4375 C 8.828125 -2.3125 8.757812 -2.25 8.625 -2.25 L 3.984375 -2.25 C 3.847656 -2.25 3.78125 -2.3125 3.78125 -2.4375 Z M 3.78125 -12.15625 "/></g></g></g></svg>